<svg height="30" width="30" xmlns="http://www.w3.org/2000/svg"><path d="M28.734 2.152a1.118 1.118 0 000-1.583 1.138 1.138 0 00-1.595 0l-3.17 3.146.027.031C21.557 1.441 18.138 0 14.363 0c-3.672 0-7.01 1.363-9.435 3.558l.004-.003L1.924.569C1.485.134.767.134.329.569s-.439 1.148 0 1.583l3.075 3.053.027-.029C1.895 7.153.987 9.56.987 12.148V30h26.75l-.002-17.853c0-2.495-.84-4.823-2.275-6.756l.006.005zM8.905 10.915a1.825 1.825 0 01-1.831-1.818c0-1.003.82-1.818 1.831-1.818 1.011 0 1.832.815 1.832 1.818a1.823 1.823 0 01-1.832 1.818zm10.912 0a1.825 1.825 0 01-1.831-1.818c0-1.003.82-1.818 1.831-1.818s1.832.815 1.832 1.818c0 1.004-.82 1.818-1.832 1.818z" fill="#fff" fill-rule="evenodd"/></svg>