<svg height="60" width="60" xmlns="http://www.w3.org/2000/svg"><g fill="none" fill-rule="evenodd"><circle cx="29.6" cy="29.6" fill="#22262f" r="29.6"/><g fill="#fff"><circle cx="24" cy="21.6" r="3.2"/><path d="M18 32a5.2 5.2 0 015.2 5.2V40H12.8v-2.8A5.2 5.2 0 0118 32z"/><circle cx="17.6" cy="29.6" r="3.2"/><path d="M30 32a5.2 5.2 0 015.2 5.2V40H24.8v-2.8A5.2 5.2 0 0130 32z"/><circle cx="29.6" cy="29.6" r="3.2"/><path d="M42 32a5.2 5.2 0 015.2 5.2V40H36.8v-2.8A5.2 5.2 0 0142 32z"/><circle cx="41.6" cy="29.6" r="3.2"/><circle cx="35.2" cy="21.6" r="3.2"/></g></g></svg>