<svg height="60" width="60" xmlns="http://www.w3.org/2000/svg"><g fill="none" fill-rule="evenodd"><circle cx="29.6" cy="29.6" fill="#22262f" r="29.6"/><g fill="#fff"><path d="M30.128 39.8l5.05 2.92c.157.093.336.136.516.136.373 0 .724-.201.903-.524l11.346-19.651a1.049 1.049 0 00-.38-1.427l-11.418-6.598a1.02 1.02 0 00-.516-.144c-.373 0-.717.201-.904.524l-4.281 7.423v16.344a1.91 1.91 0 01-.316.997zm2.54-12.837l.171 6.598 5.795-3.148-.172-6.599z"/><path d="M28.672 40.575H15.483a1.762 1.762 0 01-1.757-1.764V16.119c0-.968.79-1.765 1.757-1.765h13.19c.968 0 1.757.79 1.757 1.765V38.81c0 .975-.79 1.764-1.758 1.764zM22.14 28.54c.136 0 .25.072.315.187.603 1.133 1.14 1.52 2.116 1.52 1.14 0 2.073-.86 2.073-1.915 0-2.05-2.252-4.23-4.504-6.347-2.26 2.116-4.504 4.296-4.504 6.347 0 1.055.932 1.915 2.072 1.915.976 0 1.514-.38 2.116-1.52a.365.365 0 01.316-.187zm-.029 1.93a7.9 7.9 0 01-1.693 2.99 7.828 7.828 0 013.436-.028 7.762 7.762 0 01-1.743-2.962z"/></g></g></svg>