<svg height="60" width="60" xmlns="http://www.w3.org/2000/svg"><g fill="none" fill-rule="evenodd"><circle cx="29.6" cy="29.6" fill="#22262f" r="29.6"/><g fill="#fff"><path d="M22.495 26.84a.36.36 0 01-.359-.36v-6.847c0-4.169 3.392-7.56 7.56-7.56 4.168 0 7.56 3.391 7.56 7.56v6.848a.36.36 0 01-.586.28 11.04 11.04 0 00-6.974-2.449 11.04 11.04 0 00-6.975 2.449.362.362 0 01-.226.08zm7.201-3.248c2.484 0 4.835.746 6.84 2.165v-6.124c0-3.772-3.068-6.84-6.84-6.84s-6.84 3.068-6.84 6.84v6.125a11.737 11.737 0 016.84-2.166z" stroke="#fff" stroke-width="1.6"/><path d="M29.696 22.712a11.04 11.04 0 00-6.975 2.449 11.115 11.115 0 00-4.185 8.71c0 6.155 5.007 11.16 11.16 11.16 6.154 0 11.16-5.007 11.16-11.16a11.11 11.11 0 00-4.186-8.71 11.04 11.04 0 00-6.974-2.449zm0 8.64c-1.389 0-2.52 1.13-2.52 2.52s1.131 2.519 2.52 2.519 2.52-1.13 2.52-2.52-1.131-2.519-2.52-2.519z"/></g></g></svg>