<svg width="29" height="25" xmlns="http://www.w3.org/2000/svg"><defs><linearGradient x1="15.053%" y1="40.76%" x2="84.947%" y2="40.76%" id="a"><stop stop-color="#C9914A" offset="0%"/><stop stop-color="#F0DFAC" offset="15.225%"/><stop stop-color="#FFF" offset="21.265%"/><stop stop-color="#FFFCD0" offset="33.384%"/><stop stop-color="#FDC674" offset="58.187%"/><stop stop-color="#675229" offset="60.086%"/><stop stop-color="#EDA857" offset="80.494%"/><stop stop-color="#FFF7B8" offset="100%"/></linearGradient></defs><path d="M14.057 22.183c2.971-.02 5.591-.335 7.679-.802l-.67 2.066c-.974.748-3.74 1.287-6.999 1.287-3.26 0-6.046-.54-7.02-1.287l-.676-2.086c2.13.5 4.777.846 7.686.822zM26.481 7.702c.15.05.311.08.479.08.84 0 1.521-.692 1.521-1.545S27.8 4.693 26.96 4.693c-.84 0-1.521.692-1.521 1.544 0 .542.274 1.017.69 1.292-2.985 4.292-9.828 11.492-11.665-3.9a1.813 1.813 0 001.572-1.808C16.036.815 15.232 0 14.242 0c-.991 0-1.795.816-1.795 1.821 0 .93.686 1.696 1.572 1.807-1.837 15.393-8.682 8.193-11.666 3.901.416-.275.69-.751.69-1.292 0-.853-.68-1.544-1.521-1.544C.682 4.693 0 5.385 0 6.237 0 7.09.68 7.78 1.52 7.78c.168 0 .33-.027.48-.08 1.04 3.157 3.217 9.829 3.646 11.1.19.565.38 1.13.572 1.694 2.188.311 4.965.511 8.023.49 3.131-.028 5.87-.19 8.013-.464l.58-1.72c.43-1.271 2.609-7.944 3.647-11.098z" fill="url(#a)"/></svg>