<svg height="129" width="143" xmlns="http://www.w3.org/2000/svg"><filter id="a" height="107.4%" width="105.8%" x="-2.9%" y="-3.3%"><feOffset dy="1" in="SourceAlpha" result="shadowOffsetOuter1"/><feGaussianBlur in="shadowOffsetOuter1" result="shadowBlurOuter1" stdDeviation=".5"/><feColorMatrix in="shadowBlurOuter1" result="shadowMatrixOuter1" values="0 0 0 0 0 0 0 0 0 0 0 0 0 0 0 0 0 0 0.265269886 0"/><feMerge><feMergeNode in="shadowMatrixOuter1"/><feMergeNode in="SourceGraphic"/></feMerge></filter><linearGradient id="b" x1="15.053%" x2="84.947%" y1="40.76%" y2="40.76%"><stop offset="0" stop-color="#c9914a"/><stop offset=".152" stop-color="#f0dfac"/><stop offset=".213" stop-color="#fff"/><stop offset=".334" stop-color="#fffcd0"/><stop offset=".582" stop-color="#fdc674"/><stop offset=".601" stop-color="#675229"/><stop offset=".805" stop-color="#eda857"/><stop offset="1" stop-color="#fff7b8"/></linearGradient><g fill="none" fill-rule="evenodd" filter="url(#a)" opacity=".9" transform="translate(3 3)"><path d="M65.18 58.01c7.77-.055 14.621-.877 20.08-2.098-.582 1.802-1.165 3.605-1.75 5.404-2.548 1.954-9.78 3.364-18.304 3.364-8.527 0-15.812-1.41-18.36-3.364-.588-1.82-1.177-3.636-1.766-5.456 5.57 1.307 12.493 2.212 20.1 2.15zm32.49-37.87a3.9 3.9 0 001.25.209c2.197 0 3.98-1.81 3.98-4.04s-1.783-4.037-3.98-4.037c-2.194 0-3.977 1.81-3.977 4.037a4.04 4.04 0 001.806 3.38c-7.807 11.223-25.702 30.05-30.505-10.2 2.315-.292 4.111-2.294 4.111-4.726C70.355 2.13 68.252 0 65.663 0c-2.592 0-4.695 2.134-4.695 4.763 0 2.432 1.796 4.434 4.11 4.726-4.802 40.25-22.7 21.423-30.504 10.2a4.044 4.044 0 001.806-3.38c0-2.23-1.78-4.037-3.98-4.037-2.197 0-3.98 1.81-3.98 4.037 0 2.23 1.78 4.04 3.977 4.04a3.84 3.84 0 001.253-.209c2.717 8.25 8.414 25.695 9.534 29.023.5 1.478.996 2.956 1.495 4.43 5.724.813 12.985 1.336 20.981 1.283 8.189-.076 15.352-.497 20.955-1.216l1.518-4.497c1.123-3.325 6.82-20.774 9.537-29.023z" fill="url(#b)"/><path d="M5.989 77.318h12.595c1.523 0 3.118.175 4.785.525s3.19.957 4.568 1.821 2.511 2.048 3.396 3.55 1.327 3.386 1.327 5.65c0 1.975-.36 3.683-1.08 5.124s-1.688 2.624-2.902 3.55-2.613 1.615-4.198 2.068c-1.585.453-3.241.68-4.97.68h-9.446v20.744H5.989zm4.075 19.263h9.26c1.153 0 2.285-.134 3.396-.401s2.1-.7 2.964-1.297 1.564-1.389 2.099-2.377.803-2.202.803-3.643c0-1.399-.278-2.593-.834-3.58s-1.276-1.801-2.16-2.44-1.904-1.1-3.057-1.388-2.305-.433-3.457-.433h-9.014zm37.979-19.263h4.074v19.263h.37l21.178-19.263h5.618L57.18 97.322l23.338 23.708h-5.866L52.488 98.433h-.37v22.597h-4.075zm80.332 36.859c-2.1 2.84-4.527 4.877-7.285 6.112-2.758 1.235-5.742 1.852-8.953 1.852-3.333 0-6.39-.566-9.168-1.698-2.778-1.131-5.155-2.716-7.13-4.754s-3.52-4.465-4.631-7.285-1.667-5.896-1.667-9.23c0-3.334.555-6.4 1.667-9.2s2.654-5.216 4.63-7.254 4.353-3.632 7.131-4.785c2.778-1.152 5.835-1.728 9.168-1.728 2.964 0 5.732.525 8.305 1.574 2.572 1.05 4.826 2.81 6.76 5.279l-3.334 2.778c-1.358-2.058-3.097-3.56-5.217-4.507-2.12-.947-4.29-1.42-6.514-1.42-2.84 0-5.402.494-7.686 1.482-2.285.988-4.23 2.346-5.835 4.075-1.605 1.728-2.84 3.766-3.704 6.112s-1.297 4.877-1.297 7.594c0 2.717.433 5.248 1.297 7.594s2.1 4.384 3.704 6.112c1.606 1.729 3.55 3.087 5.835 4.075 2.284.988 4.846 1.482 7.686 1.482 1.112 0 2.264-.134 3.458-.401a15.674 15.674 0 003.488-1.235 16.747 16.747 0 003.242-2.1 13.438 13.438 0 002.716-3.055z" fill="#fff" fill-rule="nonzero"/></g></svg>