<svg height="61" width="61" xmlns="http://www.w3.org/2000/svg"><g fill="#fff" fill-rule="evenodd"><path d="M29.262 28.7c3.86-.027 7.263-.434 9.975-1.038-.29.892-.579 1.783-.87 2.674C37.102 31.302 33.51 32 29.274 32s-7.854-.698-9.12-1.664l-.878-2.7c2.767.647 6.207 1.095 9.985 1.064zm16.14-18.736c.194.066.403.103.62.103 1.092 0 1.978-.895 1.978-1.998s-.886-1.997-1.977-1.997c-1.09 0-1.976.895-1.976 1.997 0 .701.357 1.316.897 1.672-3.878 5.552-12.768 14.867-15.154-5.047a2.348 2.348 0 002.042-2.338c0-1.302-1.044-2.356-2.33-2.356-1.288 0-2.333 1.056-2.333 2.356 0 1.204.892 2.194 2.042 2.338-2.386 19.914-11.277 10.6-15.154 5.047.54-.356.897-.972.897-1.672a1.986 1.986 0 00-1.977-1.997A1.988 1.988 0 0011 8.069c0 1.103.884 1.998 1.976 1.998.217 0 .426-.036.622-.103 1.35 4.081 4.18 12.713 4.736 14.359.249.731.495 1.462.743 2.192 2.844.402 6.45.66 10.423.635 4.068-.038 7.627-.246 10.41-.602l.754-2.225c.558-1.645 3.388-10.278 4.738-14.359z"/><path d="M1 38.532h6.175c.746 0 1.528.084 2.345.252a6.908 6.908 0 012.24.872c.676.414 1.231.98 1.665 1.7.434.72.65 1.622.65 2.706 0 .946-.176 1.764-.529 2.454a4.828 4.828 0 01-1.422 1.7 6.195 6.195 0 01-2.059.991 9.021 9.021 0 01-2.436.325H2.998v9.936H1zm1.998 9.226h4.54c.565 0 1.12-.064 1.665-.192a4.354 4.354 0 001.453-.621 3.245 3.245 0 001.029-1.139c.262-.473.393-1.054.393-1.744 0-.67-.136-1.242-.408-1.715a3.614 3.614 0 00-1.06-1.168 4.377 4.377 0 00-1.498-.666 7.121 7.121 0 00-1.695-.207h-4.42zm18.619-9.226h1.998v9.226h.181l10.382-9.226h2.755l-10.836 9.58 11.44 11.356h-2.875L23.796 48.645h-.181v10.823h-1.998zM61 56.185c-1.03 1.36-2.22 2.337-3.572 2.928S54.613 60 53.04 60c-1.634 0-3.132-.271-4.494-.813-1.362-.542-2.528-1.301-3.496-2.277-.969-.976-1.726-2.139-2.27-3.49-.545-1.35-.818-2.823-.818-4.42s.273-3.065.818-4.406a10.462 10.462 0 012.27-3.474c.968-.976 2.134-1.74 3.496-2.292 1.362-.552 2.86-.828 4.494-.828 1.453 0 2.81.251 4.072.754 1.26.503 2.366 1.345 3.314 2.528l-1.635 1.33c-.665-.985-1.518-1.704-2.557-2.158s-2.104-.68-3.194-.68c-1.392 0-2.648.237-3.768.71a8.41 8.41 0 00-2.86 1.951 8.602 8.602 0 00-1.816 2.928c-.424 1.124-.636 2.336-.636 3.637s.212 2.513.636 3.637a8.602 8.602 0 001.816 2.928 8.41 8.41 0 002.86 1.951c1.12.473 2.376.71 3.768.71a7.92 7.92 0 001.696-.192 7.805 7.805 0 001.71-.592 8.234 8.234 0 001.589-1.005 6.488 6.488 0 001.332-1.464z" fill-rule="nonzero"/></g></svg>