<svg height="30" viewBox="0 0 30 30" width="30" xmlns="http://www.w3.org/2000/svg"><path d="m28.7337825 2.15203167c.43829-.43509742.43829-1.14823089 0-1.58332369-.43829-.43509742-1.1566562-.43509742-1.5949415 0l-3.1698637 3.1467738.0272823.03068851c-2.4387828-2.30546959-5.8577717-3.74617029-9.6330594-3.74617029-3.6717921 0-7.01098268 1.36305045-9.43519323 3.55838805l.00363608-.0036096-3.00798577-2.98607509c-.43829001-.43509742-1.15665617-.43509742-1.59494152 0s-.43829001 1.14823089 0 1.58332369l3.07530685 3.05290579.02727761-.02888602c-1.53674557 1.97686684-2.44422996 4.38346524-2.44422996 6.97239218v17.851561h26.75011824l-.0018157-17.8534097c0-2.49501271-.8402099-4.82234787-2.2750893-6.75563149l.0054518.00541671zm-19.82852454 8.76332553c-1.0111663 0-1.83135676-.8142161-1.83135676-1.81801686 0-1.00380078.82019046-1.81801683 1.83135676-1.81801683 1.01116629 0 1.83135974.81421605 1.83135974 1.81801683.0018174 1.00380076-.81837774 1.81801686-1.83135974 1.81801686zm10.91197364 0c-1.0111663 0-1.8313567-.8142161-1.8313567-1.81801686 0-1.00380078.8201904-1.81801683 1.8313567-1.81801683s1.8313568.81421605 1.8313568 1.81801683c0 1.00380076-.8201905 1.81801686-1.8313568 1.81801686z" fill="#fff" fill-rule="evenodd"/></svg>