<svg height="36" viewBox="0 0 30 36" width="30" xmlns="http://www.w3.org/2000/svg"><path d="m22.5813242 0c-4.2451836 1.42029-7.5537447 2.84238-7.0818911 9 4.2451836-.947475 8.0255983-3.31524 7.0818911-9zm-13.15275277 8.1c-3.85714286 0-9.42857143 3.4338462-9.42857143 9.8723077 0 9.0138461 6 18.0276923 9.42857143 18.0276923 2.57142857 0 4.71428567-1.7169231 6.42857147-1.7169231 1.7142857 0 3.4285714 1.7169231 6 1.7169231 3.4285714 0 7.2857142-5.1507692 8.1428571-9.8723077-3-2.1461538-5.1428571-3.4338461-5.1428571-7.2969231 0-2.5753846 2.1428571-5.1507692 4.7142857-7.296923-1.2857143-1.71692312-3.8571429-3.4338462-6.4285715-3.4338462-2.5714285 0-5.337 2.0371722-7.2857142 2.1461538-1.7142858 0-3.8571429-2.1461538-6.42857147-2.1461538z" fill="#fff" fill-rule="evenodd"/></svg>