<svg height="60" viewBox="0 0 60 60" width="60" xmlns="http://www.w3.org/2000/svg"><g fill="none" fill-rule="evenodd"><circle cx="29.6" cy="29.6" fill="#22262f" r="29.6"/><g fill="#fff"><path d="m22.495424 26.840064c-.05231088 0-.10631088-.0118109-.15525216-.035437-.12487392-.059063-.20418912-.185626-.20418912-.324v-6.84806396c0-4.1681088 3.3918912-7.56 7.55999998-7.56 4.1681088 0 7.56 3.3918912 7.56 7.56v6.84806396c0 .138374-.0793109.264937-.2041891.324-.1248739.0607479-.2733739.0421892-.3813739-.0438739-1.998-1.601424-4.409424-2.448576-6.97464-2.448576-2.56521602 0-4.97664002.8471088-6.97464002 2.448576-.06581088.0523109-.14512608.0793109-.22612608.0793109zm7.200576-3.248424c2.484 0 4.834512.7458912 6.839424 2.1650544v-6.124032c0-3.771576-3.0678912-6.839424-6.839424-6.839424s-6.839424 3.0678912-6.839424 6.839424v6.12576c2.0047392-1.4192064 4.355424-2.1667392 6.839424-2.1667392z" stroke="#fff" stroke-width="1.6"/><path d="m29.696 22.712c-2.565 0-4.97664.8471088-6.97464 2.448576-2.6594784 2.133-4.185 5.30712-4.185 8.710848 0 6.154272 5.00688 11.159424 11.159424 11.159424 6.154272 0 11.159424-5.00688 11.159424-11.159424 0-3.4036848-1.5254784-6.57936-4.185-8.710848-1.998-1.601424-4.409424-2.448576-6.97464-2.448576zm0 8.64c-1.3887936 0-2.519424 1.1306304-2.519424 2.519424s1.1306304 2.519424 2.519424 2.519424 2.519424-1.1306304 2.519424-2.519424-1.1306304-2.519424-2.519424-2.519424z"/></g></g></svg>