<svg height="60" viewBox="0 0 60 60" width="60" xmlns="http://www.w3.org/2000/svg"><g fill="none" fill-rule="evenodd"><circle cx="29.6" cy="29.6" fill="#22262f" r="29.6"/><g fill="#fff"><path d="m30.1284064 39.8004544 5.049 2.9189462c.1577822.0932358.3370786.1362643.5163566.1362643.3729284 0 .7243755-.2008143.9036425-.5235538l11.3457456-19.65107517c.286875-.50203584.11475-1.1403396-.3801254-1.42719624l-11.4177168-6.5982168c-.1577822-.09323575-.3370786-.14343567-.5163567-.14343567-.3729283 0-.7171783.20081434-.9036424.52355376l-4.281552 7.422948v16.34480642c-.0143429.3657642-.1219215.7100179-.3155644.9968745zm2.5389016-12.8376792.172125 6.5982168 5.7947832-3.1484462-.172125-6.5982168z"/><path d="m28.6724584 40.5748792h-13.18908887c-.96819624 0-1.7571258-.7888925-1.7571258-1.7642858v-22.69185844c0-.96819624.78889284-1.76428584 1.7571258-1.76428584h13.18908887c.9681962 0 1.7571254.78889248 1.7571254 1.76428584v22.69185844c0 .9753566-.7888924 1.7642858-1.7571254 1.7642858zm-6.53362632-12.0344659c.13626425 0 .25101425.0717178.31556434.1864678.60242832 1.1331425 1.1403396 1.5204283 2.11569628 1.5204283 1.1403396 0 2.0726604-.8606433 2.0726604-1.9148745 0-2.0511425-2.2519642-4.2312456-4.50407524-6.34705203-2.25912456 2.11569623-4.5040752 4.29587283-4.5040752 6.34705203 0 1.0542679.93235752 1.9148745 2.0726604 1.9148745.97535664 0 1.51326792-.3801254 2.11569624-1.5204283.06454641-.11475.18646783-.1864678.31556433-.1864678zm-.02878848 1.9294818c-.35859283 1.1475073-.9251604 2.1443819-1.69257168 2.9906677 1.17617832-.2653608 2.31651792-.2725322 3.43533958-.0286857-.8176075-.8821245-1.3985179-1.8718754-1.7427679-2.961982z"/></g></g></svg>