<svg height="60" viewBox="0 0 60 60" width="60" xmlns="http://www.w3.org/2000/svg"><g fill="none" fill-rule="evenodd"><circle cx="29.6" cy="29.6" fill="#22262f" r="29.6"/><g fill="#fff"><circle cx="24" cy="21.6" r="3.2"/><g><path d="m18 32c2.8718807 0 5.2 2.3281193 5.2 5.2v2.8h-10.4v-2.8c0-2.8718807 2.3281193-5.2 5.2-5.2z"/><circle cx="17.6" cy="29.6" r="3.2"/></g><g><path d="m30 32c2.8718807 0 5.2 2.3281193 5.2 5.2v2.8h-10.4v-2.8c0-2.8718807 2.3281193-5.2 5.2-5.2z"/><circle cx="29.6" cy="29.6" r="3.2"/></g><g><path d="m42 32c2.8718807 0 5.2 2.3281193 5.2 5.2v2.8h-10.4v-2.8c0-2.8718807 2.3281193-5.2 5.2-5.2z"/><circle cx="41.6" cy="29.6" r="3.2"/></g><circle cx="35.2" cy="21.6" r="3.2"/></g></g></svg>