<?xml version="1.0" encoding="UTF-8"?>
<svg width="29px" height="25px" viewBox="0 0 29 25" version="1.1" xmlns="http://www.w3.org/2000/svg" xmlns:xlink="http://www.w3.org/1999/xlink">
    <!-- Generator: Sketch 51.2 (57519) - http://www.bohemiancoding.com/sketch -->
    <title>nav-crown</title>
    <desc>Created with Sketch.</desc>
    <defs>
        <linearGradient x1="15.0530524%" y1="40.7603298%" x2="84.9469476%" y2="40.7603298%" id="linearGradient-1">
            <stop stop-color="#C9914A" offset="0%"></stop>
            <stop stop-color="#F0DFAC" offset="15.2253432%"></stop>
            <stop stop-color="#FFFFFF" offset="21.265354%"></stop>
            <stop stop-color="#FFFCD0" offset="33.3837608%"></stop>
            <stop stop-color="#FDC674" offset="58.1873194%"></stop>
            <stop stop-color="#675229" offset="60.0862536%"></stop>
            <stop stop-color="#EDA857" offset="80.4935874%"></stop>
            <stop stop-color="#FFF7B8" offset="100%"></stop>
        </linearGradient>
    </defs>
    <g id="Page-1" stroke="none" stroke-width="1" fill="none" fill-rule="evenodd">
        <path d="M14.057296,22.1832653 C17.028239,22.1622181 19.648458,21.8478266 21.735867,21.3808446 C21.51317,22.0701492 21.290485,22.7594537 21.06652,23.4474112 C20.092374,24.194604 17.326764,24.7339177 14.066978,24.7339177 C10.806237,24.7339177 8.020688,24.1945703 7.046415,23.4474112 C6.82123,22.7515399 6.596033,22.056982 6.370858,21.3611107 C8.500786,21.8609904 11.148267,22.2069392 14.057073,22.1832653 L14.057296,22.1832653 Z M26.48133,7.70165 C26.631155,7.7523448 26.792217,7.781493 26.959522,7.781493 C27.799784,7.781493 28.481481,7.0895135 28.481481,6.236576 C28.481481,5.3836385 27.799784,4.6929243 26.959522,4.6929243 C26.120505,4.6929243 25.438809,5.3849039 25.438809,6.236576 C25.438809,6.7790182 25.713488,7.2542674 26.129263,7.5293008 C23.144028,11.820755 16.300788,19.0205478 14.464222,3.6284802 C15.349424,3.5169517 16.036138,2.7514688 16.036138,1.8212157 C16.036138,0.81491234 15.232089,0 14.241986,0 C13.250637,0 12.446588,0.81617768 12.446588,1.8212157 C12.446588,2.7514688 13.13327,3.5169679 14.018504,3.6284802 C12.181906,19.0205478 5.337484,11.820755 2.353463,7.5293008 C2.769231,7.2542804 3.043917,6.7777528 3.043917,6.236576 C3.043917,5.3836385 2.363467,4.6929243 1.521958,4.6929243 C0.681697,4.6929243 0,5.3849039 0,6.236576 C0,7.0895135 0.68045,7.781493 1.520711,7.781493 C1.688016,7.781493 1.849062,7.7536101 2.000149,7.70165 C3.038931,10.8561462 5.217496,17.527513 5.645794,18.7999923 C5.836821,19.3652431 6.026596,19.9304938 6.217636,20.4944792 C8.406336,20.8049842 11.183013,21.0052229 14.240868,20.984945 C17.372204,20.9557967 20.111424,20.7948388 22.253871,20.5198185 C22.447395,19.9469757 22.640906,19.3728351 22.834439,18.7999923 C23.263951,17.5288108 25.442644,10.8562436 26.481362,7.70165 L26.48133,7.70165 Z" id="Fill-1" fill="url(#linearGradient-1)" fill-rule="nonzero"></path>
    </g>
</svg>