<svg height="129" viewBox="0 0 143 129" width="143" xmlns="http://www.w3.org/2000/svg" xmlns:xlink="http://www.w3.org/1999/xlink"><filter id="a" height="107.4%" width="105.8%" x="-2.9%" y="-3.3%"><feOffset dx="0" dy="1" in="SourceAlpha" result="shadowOffsetOuter1"/><feGaussianBlur in="shadowOffsetOuter1" result="shadowBlurOuter1" stdDeviation=".5"/><feColorMatrix in="shadowBlurOuter1" result="shadowMatrixOuter1" type="matrix" values="0 0 0 0 0   0 0 0 0 0   0 0 0 0 0  0 0 0 0.265269886 0"/><feMerge><feMergeNode in="shadowMatrixOuter1"/><feMergeNode in="SourceGraphic"/></feMerge></filter><linearGradient id="b" x1="15.053052%" x2="84.946948%" y1="40.76033%" y2="40.76033%"><stop offset="0" stop-color="#c9914a"/><stop offset=".152253432" stop-color="#f0dfac"/><stop offset=".21265354" stop-color="#fff"/><stop offset=".333837608" stop-color="#fffcd0"/><stop offset=".581873194" stop-color="#fdc674"/><stop offset=".600862536" stop-color="#675229"/><stop offset=".804935874" stop-color="#eda857"/><stop offset="1" stop-color="#fff7b8"/></linearGradient><g fill="none" fill-rule="evenodd" filter="url(#a)" opacity=".9" transform="translate(3 3)"><path d="m65.180286 58.0099609c7.7691144-.0550392 14.6210701-.877183 20.079714-2.0983562-.5823608 1.8025538-1.1646884 3.6051076-1.7503641 5.4041389-2.5474226 1.9539335-9.7795844 3.3642564-18.3040306 3.3642564-8.5269448 0-15.8112444-1.410411-18.3590002-3.3642564-.5888656-1.819726-1.1777645-3.6360176-1.7666051-5.4557436 5.5698323 1.3072016 12.4930819 2.2118689 20.099703 2.1499609zm32.489255-37.8698954c.3917955.1325684.8129787.2087921 1.2504858.2087921 2.1973142 0 3.9799732-1.809549 3.9799732-4.0400083 0-2.2304592-1.782659-4.0366994-3.9799732-4.0366994-2.1940546 0-3.9767136 1.8095491-3.9767136 4.0366994 0 1.4185039.7182959 2.6612962 1.8055607 3.3805173-7.806488 11.2222924-25.7017824 30.0499851-30.5044634-10.20077283 2.314832-.29165064 4.1106135-2.29341338 4.1106135-4.72605546 0-2.63151601-2.1026148-4.76253831-4.6917664-4.76253831-2.5924113 0-4.695026 2.13433121-4.695026 4.76253831 0 2.43264208 1.7956978 4.43444724 4.1106135 4.72605546-4.8027646 40.25075793-22.7011516 21.42306523-30.5044635 10.20077283 1.0872481-.7191872 1.8055607-1.9653223 1.8055607-3.3805173 0-2.2304592-1.7793992-4.0366994-3.9799732-4.0366994-2.1973102 0-3.9799691 1.8095491-3.9799691 4.0366994 0 2.2304593 1.7793992 4.0400083 3.9767093 4.0400083.4375071 0 .8586485-.0729148 1.2537455-.2087921 2.7164486 8.2491103 8.413468 25.6949517 9.5334807 29.0225264.4995423 1.4781491.9958082 2.9562982 1.495384 4.4311384 5.7235237.8119808 12.9846241 1.3356114 20.9810127 1.282584 8.1885461-.0762237 15.3516956-.4971339 20.9542662-1.216321.5060702-1.4980026 1.012107-2.9993988 1.5182022-4.4974014 1.1231888-3.324181 6.8205426-20.7731616 9.536824-29.0225264z" fill="url(#b)"/><path d="m5.98878 77.31808h12.59496c1.5229276 0 3.1178617.1749283 4.78485.52479s3.1898931.9569657 4.56876 1.82133 2.5107556 2.0477025 3.3957 3.55005 1.32741 3.3853987 1.32741 5.64921c0 1.9756899-.3601464 3.6838128-1.08045 5.12442s-1.6875539 2.6239454-2.90178 3.55005-2.6136521 1.6155277-4.19832 2.06829c-1.5846679.452762-3.2413414.67914-4.97007.67914h-9.44622v20.74464h-4.07484zm4.07484 19.26288h9.261c1.1524858 0 2.2843744-.1337687 3.3957-.40131s2.0991557-.699717 2.96352-1.29654 1.5640773-1.3891451 2.09916-2.37699.80262-2.2020528.80262-3.64266c0-1.399447-.2778272-2.5930751-.83349-3.58092s-1.2759556-1.8007468-2.1609-2.43873-1.9036442-1.1010286-3.05613-1.38915-2.3049542-.43218-3.45744-.43218h-9.01404zm37.9789202-19.26288h4.07484v19.26288h.37044l21.17682-19.26288h5.61834l-22.10292 20.00376 23.33772 23.70816h-5.8653l-22.16466-22.59684h-.37044v22.59684h-4.07484zm80.3325598 36.85878c-2.09917 2.840054-4.527586 4.877454-7.28532 6.11226-2.757733 1.234806-5.741803 1.8522-8.9523 1.8522-3.333976 0-6.390076-.565944-9.16839-1.69785-2.778313-1.131906-5.1552796-2.71655-7.1309695-4.75398s-3.5191744-4.465846-4.6305-7.28532-1.66698-5.896153-1.66698-9.23013c0-3.3339767.5556544-6.400366 1.66698-9.19926s2.6548101-5.2170198 4.6305-7.25445 4.3526565-3.6323642 7.1309695-4.78485c2.778314-1.1524858 5.834414-1.72872 9.16839-1.72872 2.963535 0 5.731518.5247848 8.30403 1.57437 2.572513 1.0495852 4.826001 2.8091577 6.76053 5.27877l-3.33396 2.7783c-1.358286-2.0580103-3.097279-3.5603353-5.21703-4.50702-2.11975-.9466847-4.290918-1.42002-6.51357-1.42002-2.840054 0-5.402238.4939151-7.68663 1.48176-2.284391.9878449-4.229181 2.3461114-5.8344295 4.07484-1.605248 1.7287286-2.8400357 3.7661283-3.7044 6.11226s-1.29654 4.8774464-1.29654 7.59402c0 2.716574.4321757 5.247888 1.29654 7.59402s2.099152 4.383531 3.7044 6.11226c1.6052485 1.728729 3.5500385 3.086995 5.8344295 4.07484 2.284392.987845 4.846576 1.48176 7.68663 1.48176 1.111326 0 2.263795-.133769 3.45744-.40131 1.193646-.267541 2.356405-.679137 3.48831-1.2348 1.131906-.555663 2.212345-1.255376 3.24135-2.09916 1.029006-.843784 1.934517-1.862484 2.71656-3.05613z" fill="#fff" fill-rule="nonzero"/></g></svg>