<svg height="61" viewBox="0 0 61 61" width="61" xmlns="http://www.w3.org/2000/svg"><g fill="#fff" fill-rule="evenodd"><path d="m29.2616888 28.7000425c3.8595225-.0272303 7.263421-.4339805 9.9751533-1.0381478-.2893039.8918015-.5785912 1.7836031-.8695418 2.6736618-1.2655026.9666956-4.858279 1.6644435-9.0930334 1.6644435-4.2359957 0-7.854673-.6977914-9.1203412-1.6644435-.2925352-.9002973-.5850871-1.7988955-.8776099-2.6991929 2.7669683.6467293 6.2062839 1.0943075 9.9850834 1.0636789zm16.139936-18.73587901c.1946353.06558741.4038697.10329851.6212134.10329851 1.0915767 0 1.9771618-.89526234 1.9771618-1.99876723s-.8855851-1.99713019-1.9771618-1.99713019c-1.0899573 0-1.9755424.89526236-1.9755424 1.99713019 0 .70179536.3568333 1.3166586.8969622 1.67248845-3.8780889 5.55215458-12.7680713 14.86703038-15.1539359-5.04676453 1.1499568-.14429222 2.0420609-1.13465102 2.0420609-2.33818453 0-1.30192505-1.044532-2.35623416-2.3307647-2.35623416-1.287852 0-2.332384 1.05594618-2.332384 2.35623416 0 1.20353351.8920625 2.1939133 2.0420609 2.33818453-2.3859061 19.91379491-11.2774249 10.59891911-15.1539359 5.04676453.5401206-.35581306.8969622-.97233015.8969622-1.67248845 0-1.10350489-.8839658-1.99713019-1.9771618-1.99713019-1.0915746 0-1.9771597.89526236-1.9771597 1.99713019 0 1.10350489.8839658 1.99876723 1.9755403 1.99876723.2173438 0 .4265574-.0360741.6228328-.10329851 1.3494709 4.08119251 4.1796229 12.71240651 4.7360202 14.35870201.2481615.7313044.4946953 1.4626089.7428734 2.1922762 2.8433186.4017222 6.4504711.6607849 10.4228984.63455 4.0678867-.0377112 7.6263793-.2459537 10.4096112-.6017668.2514044-.7411268.5027922-1.4839326.754209-2.2250594.5579751-1.6446164 3.3882931-10.2773836 4.7376811-14.35870201z"/><path d="m1 38.5322581h6.17469018c.7466166 0 1.52853441.0837805 2.3457769.2513441.8172425.1675635 1.56384792.4583312 2.23983862.8723118.6759907.4139805 1.2309001.9807311 1.6647449 1.7002688.4338448.7195376.6507639 1.6214103.6507639 2.7056452 0 .9462412-.1765621 1.7643334-.5296916 2.454301-.3531294.6899676-.8273248 1.2567182-1.4226002 1.7002688-.5952753.4435507-1.28134517.7737445-2.05823001.9905914-.77688484.216847-1.58907044.3252689-2.43658118.3252689h-4.63101763v9.9354838h-1.99769388zm1.99769388 9.2258064h4.54021337c.56500715 0 1.11991657-.0640674 1.6647449-.1922043.54482833-.1281368 1.02911291-.335124 1.45286828-.6209677.42375537-.2858438.76679027-.6653202 1.02911507-1.1384409.2623247-.4731206.3934851-1.054656.3934851-1.7446236 0-.6702543-.136205-1.2419332-.4086192-1.7150538-.2724142-.4731207-.6255383-.8624537-1.05938311-1.1680108-.43384478-.305557-.93326325-.527329-1.49827041-.6653225-.56500715-.1379936-1.13000583-.2069893-1.69501299-.2069893h-4.41914101zm18.61919852-9.2258064h1.9976939v9.2258064h.1816085l10.3819546-9.2258064h2.7543961l-10.8359759 9.5806451 11.4413376 11.3548387h-2.8754684l-10.866244-10.8225806h-.1816085v10.8225806h-1.9976939zm39.3831076 17.6532258c-1.0291202 1.3602218-2.2196531 2.3360185-3.5716345 2.9274193s-2.8149244.8870968-4.3888729.8870968c-1.634485 0-3.1327404-.2710546-4.4948113-.813172-1.3620708-.5421174-2.5273806-1.3010704-3.4959643-2.2768818-.9685837-.9758113-1.7252783-2.1388821-2.2701066-3.4892473-.5448284-1.3503652-.8172384-2.8239167-.8172384-4.4206989s.27241-3.0654055.8172384-4.405914c.5448283-1.3405085 1.3015229-2.498651 2.2701066-3.4744623.9685837-.9758114 2.1338935-1.7396926 3.4959643-2.2916667 1.3620709-.5519741 2.8603263-.827957 4.4948113-.827957 1.4528755 0 2.8098813.2513416 4.0710579.7540323 1.2611767.5026906 2.3659509 1.3454242 3.3143558 2.5282258l-1.6344768 1.3306451c-.6659013-.985668-1.5184439-1.7051948-2.5576535-2.1586021s-2.1036268-.6801076-3.1932834-.6801076c-1.3923391 0-2.6484522.2365568-3.7683771.7096775-1.1199249.4731206-2.0733602 1.1236517-2.8603345 1.9516129-.7869742.8279611-1.3923299 1.8037578-1.8160853 2.9274193-.4237554 1.1236616-.6356299 2.336015-.6356299 3.6370968s.2118745 2.5134352.6356299 3.6370968c.4237554 1.1236615 1.0291111 2.0994582 1.8160853 2.9274193.7869743.8279612 1.7404096 1.4784923 2.8603345 1.9516129 1.1199249.4731207 2.376038.7096775 3.7683771.7096775.5448283 0 1.109827-.0640675 1.695013-.1922043.5851859-.1281369 1.1552292-.3252675 1.710147-.5913979.5549177-.2661304 1.084604-.6012525 1.5890747-1.0053763.5044706-.4041239.9483982-.8920223 1.3317959-1.4637097z" fill-rule="nonzero"/></g></svg>